<svg xmlns="http://www.w3.org/2000/svg" viewBox="0 0 64 64">
  <rect width="64" height="64" rx="16" fill="#090909"/>
  <rect x="3" y="3" width="58" height="58" rx="13" fill="none" stroke="#c5a37b" stroke-opacity=".42"/>
  <path fill="#fffdf9" d="M42.8 18.3c-2.8-2.5-6.2-3.8-10.1-3.8-4.8 0-8.2 2.1-8.2 5.5 0 3.7 3.5 5.2 8.9 7.4 6.7 2.7 11.7 5.5 11.7 11.8 0 7.2-6.2 11.2-14.1 11.2-5 0-9.4-1.5-12.7-4.4l2.4-5.2c3.1 3.2 6.9 4.9 11 4.9 5.1 0 8.8-2.2 8.8-6 0-4.1-3.8-5.8-9.5-8.1-6.4-2.6-11.1-5.2-11.1-11.1 0-6.6 5.7-10.6 13.2-10.6 4.5 0 8.6 1.3 12 3.8z"/>
  <circle cx="48" cy="14" r="2" fill="#c5a37b"/>
</svg>
